<svg width="67" height="67" viewBox="0 0 67 67" fill="none" xmlns="http://www.w3.org/2000/svg">
<g clip-path="url(#clip0_14_12)">
<path opacity="0.21" d="M24.6389 63.3285L13.9245 52.6141L3.67127 42.3609C-1.22229 37.4673 -1.22229 29.5325 3.67127 24.6389L24.6389 3.67127C29.5325 -1.22229 37.4673 -1.22229 42.3609 3.67127L54.1121 15.4225L63.3285 24.6389C68.2221 29.5325 68.2221 37.4673 63.3285 42.3609L53.2371 52.4524L42.3609 63.3285C37.4673 68.2221 29.5325 68.2221 24.6389 63.3285Z" fill="#E3E329"/>
<g filter="url(#filter0_d_14_12)">
<path d="M44.2514 12H22.7486C16.8123 12 12 16.8123 12 22.7486V44.2514C12 50.1877 16.8123 55 22.7486 55H44.2514C50.1877 55 55 50.1877 55 44.2514V22.7486C55 16.8123 50.1877 12 44.2514 12Z" fill="#1D1D1B"/>
</g>
<path d="M34.4642 32.9876H33.9244L33.67 31.3469H34.7186L34.4642 32.9876Z" fill="#F6F6F6"/>
<path d="M48.12 22.946H47.3449L47.0239 24.7389H48.3554L48.12 22.946Z" fill="#F6F6F6"/>
<path d="M22.7962 25.5997L21.5098 29.1617C21.2934 29.7609 21.4908 30.4314 21.9973 30.8166C22.4609 31.1685 22.6678 31.763 22.5275 32.3265L19.6694 43.8233C19.5814 44.1824 19.6313 44.5605 19.8097 44.8838L19.8834 45.0146C20.1402 45.4783 20.6276 45.7636 21.1579 45.7636H26.3368C26.9907 45.7636 27.5661 45.3285 27.7421 44.696L29.5992 38.0238C29.7775 37.3794 30.3743 36.9395 31.0425 36.9586L35.275 37.0703C35.5794 37.0774 35.879 36.9895 36.131 36.8183L37.4056 35.9527C37.7194 35.7411 37.9358 35.4153 38.0143 35.0444L38.4233 33.0875C38.5636 32.4145 39.1533 31.9318 39.8405 31.9271L48.1105 31.8676C48.9095 31.8629 49.5563 31.2137 49.5586 30.4148L49.5705 26.099C49.5705 25.2929 48.919 24.6367 48.1129 24.6367H24.1682C23.5547 24.6367 23.0055 25.0219 22.7962 25.5997ZM34.2573 36.6233C32.5025 36.6233 31.0829 35.4415 31.0829 33.9863C31.0829 32.531 32.5049 31.3493 34.2573 31.3493C36.0098 31.3493 37.4317 32.531 37.4317 33.9863C37.4317 35.4415 36.0098 36.6233 34.2573 36.6233Z" fill="#F6F6F6"/>
</g>
<defs>
<filter id="filter0_d_14_12" x="8" y="12" width="51" height="51" filterUnits="userSpaceOnUse" color-interpolation-filters="sRGB">
<feFlood flood-opacity="0" result="BackgroundImageFix"/>
<feColorMatrix in="SourceAlpha" type="matrix" values="0 0 0 0 0 0 0 0 0 0 0 0 0 0 0 0 0 0 127 0" result="hardAlpha"/>
<feOffset dy="4"/>
<feGaussianBlur stdDeviation="2"/>
<feComposite in2="hardAlpha" operator="out"/>
<feColorMatrix type="matrix" values="0 0 0 0 0 0 0 0 0 0 0 0 0 0 0 0 0 0 0.25 0"/>
<feBlend mode="normal" in2="BackgroundImageFix" result="effect1_dropShadow_14_12"/>
<feBlend mode="normal" in="SourceGraphic" in2="effect1_dropShadow_14_12" result="shape"/>
</filter>
<clipPath id="clip0_14_12">
<rect width="67" height="67" fill="white"/>
</clipPath>
</defs>
</svg>
